<svg width="20" height="25" xmlns="http://www.w3.org/2000/svg">
  <g fill="#000" fill-rule="nonzero">
    <path d="M11.5 24.25a2.227 2.227 0 01-1.5-.575 2.227 2.227 0 01-1.5.575h-6A2.252 2.252 0 01.25 22V2.5A2.252 2.252 0 012.5.25h6c.563 0 1.091.206 1.5.575A2.227 2.227 0 0111.5.25h6a2.252 2.252 0 012.25 2.25V22a2.252 2.252 0 01-2.25 2.25h-6zm0-22.5a.75.75 0 00-.75.75V22c0 .414.336.75.75.75h6a.75.75 0 00.75-.75V2.5a.75.75 0 00-.75-.75h-6zm-9 0a.75.75 0 00-.75.75V22c0 .414.336.75.75.75h6a.75.75 0 00.75-.75V2.5a.75.75 0 00-.75-.75h-6z"/>
    <path d="M14.5 21.25A2.252 2.252 0 0112.25 19a2.252 2.252 0 012.25-2.25A2.252 2.252 0 0116.75 19a2.252 2.252 0 01-2.25 2.25zm0-3a.75.75 0 100 1.5.75.75 0 000-1.5zM5.5 21.25A2.252 2.252 0 013.25 19a2.252 2.252 0 012.25-2.25A2.252 2.252 0 017.75 19a2.252 2.252 0 01-2.25 2.25zm0-3a.75.75 0 100 1.5.75.75 0 000-1.5zM4.5 15.25c-.689 0-1.25-.561-1.25-1.25V5.25C3.25 4.561 3.811 4 4.5 4h2c.689 0 1.25.561 1.25 1.25V14c0 .689-.561 1.25-1.25 1.25h-2zm1.75-1.5V5.5h-1.5v8.25h1.5zM13.5 15.25c-.689 0-1.25-.561-1.25-1.25V5.25c0-.689.561-1.25 1.25-1.25h2c.689 0 1.25.561 1.25 1.25V14c0 .689-.561 1.25-1.25 1.25h-2zm1.75-1.5V5.5h-1.5v8.25h1.5z"/>
  </g>
</svg>