<svg width="20" height="25" xmlns="http://www.w3.org/2000/svg">
  <g fill="none" fill-rule="evenodd">
    <path d="M3.25 24.5c-1.654 0-3-1.346-3-3V4.25A3.754 3.754 0 014 .5h14.25c.827 0 1.5.673 1.5 1.5v16.5c0 .827-.673 1.5-1.5 1.5v3H19a.75.75 0 010 1.5H3.25zm0-4.5c-.827 0-1.5.673-1.5 1.5s.673 1.5 1.5 1.5h13.5v-3H3.25zM4 2a2.252 2.252 0 00-2.25 2.25v14.651a2.973 2.973 0 011.5-.401h15V2H4z" fill="#000" fill-rule="nonzero"/>
    <g stroke="#000" stroke-linecap="round" stroke-linejoin="round" stroke-width="1.125">
      <path d="M11.866 6.953h2.7a.675.675 0 01.627.925l-3.279 4.899a.675.675 0 00.627.926h2.7M8.302 13.701v-5.06a1.688 1.688 0 10-3.375 0v5.062m0-2.252h3.375"/>
    </g>
  </g>
</svg>