<svg width="24" height="24" xmlns="http://www.w3.org/2000/svg">
  <path d="M16.875 24a.743.743 0 01-.53-.22L.595 8.03a.743.743 0 01-.22-.53c0-.2.078-.389.22-.53a.743.743 0 01.53-.22c.2 0 .389.078.53.22l.22.22 5.781-5.781A2.23 2.23 0 019.247.751c.602 0 1.166.234 1.591.658l1.409 1.409L14.845.22a.743.743 0 01.53-.22c.2 0 .389.078.53.22l7.5 7.5c.142.141.22.33.22.53s-.078.389-.22.53l-6.063 6.063c-.424.425-.99.658-1.591.658a2.233 2.233 0 01-1.59-.657l-1.41-1.41-2.315 2.315 6.97 6.97A.752.752 0 0116.875 24zm-7.5-9.311l6.311-6.31-5.909-5.91a.748.748 0 00-1.061 0L2.936 8.25l6.439 6.439zm5.845-.906a.748.748 0 001.004.052 5 5 0 01-1.007-2.866l-1.406 1.406 1.409 1.408zm2.215-5.109a.71.71 0 01-.079.142c-.841 1.17-.846 2.769-.055 3.948l4.514-4.514-6.439-6.439-2.068 2.068 3.969 3.97a.704.704 0 01.158.235.762.762 0 01.015.55l-.015.04z" fill="#000" fill-rule="nonzero"/>
</svg>