<svg width="31" height="36" xmlns="http://www.w3.org/2000/svg">
  <g fill="none" fill-rule="evenodd">
    <path d="M19.9 18.957v4.248c0 .53-.406.958-.907.958a.864.864 0 01-.404-.1.89.89 0 01-.056-.023l-12.18-5.39a.89.89 0 01-.669-.326.976.976 0 01-.365-.769V6.565a1.031 1.031 0 01-.076-.118L4.665 6.2 2.04 5.078v26.234l3.28 1.4v-8.816-.04c-.006-.139.016-.28.07-.417.193-.488.724-.718 1.186-.514l12.243 5.42.236.112c.472.033.845.449.845.956v1.899l3.248 1.387.031.014V17.425L19.9 18.957zm-1.814.45l-6.614-2.927-2.67 1.176 9.284 4.109v-2.357zM7.133 25.25v7.608l3.279-1.4V26.7l-3.279-1.45zm-.889 10.074a.88.88 0 01-.644-.265l-.935-.4-3.683-1.573c-.429-.076-.756-.47-.756-.945v-.05V3.63v-.044-.054a.98.98 0 01.319-.73.969.969 0 01.292-.193L5.856.466a.929.929 0 01.856-.052l4.709 2.088h.038c.5 0 .907.428.907.958v6.402l5.72-2.435V3.631a1.084 1.084 0 010-.088V3.46c0-.514.382-.933.862-.958L23.716.466a.929.929 0 01.856-.052l4.906 2.175c.425.08.748.472.748.944v28.608a.97.97 0 01-.451.829.97.97 0 01-.3.202l-4.883 2.086a.932.932 0 01-.925-.11l-1.251-.535-3.719-1.589a1.014 1.014 0 01-.575-.681 1.008 1.008 0 01-.036-.3v-1.945l-.012-.006.012-.028v.034l-5.86-2.594v4.63c0 .028-.001.056-.004.084a1.034 1.034 0 01-.61.954l-4.88 2.085a.924.924 0 01-.488.067zm18.75-2.464l3.418-1.46V5.131l-3.419 1.46v3.204a.978.978 0 01-.34.748.91.91 0 01-.36.289l-10.468 4.61 4.678 2.07 5.13-2.396c.458-.214.993.005 1.196.49l.014.034c.095.152.15.334.15.53V32.86zM23.178 6.565a1.031 1.031 0 01-.076-.118l-.578-.247L19.9 5.078v2.226l3.28 1.4V6.566zm-16.046 9.75l3.419-1.506V5.132l-3.419 1.46v9.722zm5.233-4.386v2.08l8.871-3.907-2.26-.966a.967.967 0 01-.024-.01l-6.587 2.803zm9.256-8.342l1.635.699.962.41 2.527-1.08-2.549-1.13-2.575 1.101zm-17.86 0l1.635.699.962.41 2.527-1.08-2.549-1.13-2.575 1.101z" fill="#000010" fill-rule="nonzero"/>
  </g>
</svg>